<?xml version="1.0" encoding="utf-8"?>
<!-- Generator: Adobe Illustrator 16.0.0, SVG Export Plug-In . SVG Version: 6.00 Build 0)  -->
<!DOCTYPE svg PUBLIC "-//W3C//DTD SVG 1.1//EN" "http://www.w3.org/Graphics/SVG/1.1/DTD/svg11.dtd">
<svg version="1.1" id="Слой_1" xmlns="http://www.w3.org/2000/svg" xmlns:xlink="http://www.w3.org/1999/xlink" x="0px" y="0px"
	 width="670.581px" height="103.1px" viewBox="0 0 670.581 103.1" enable-background="new 0 0 670.581 103.1" xml:space="preserve">
<g>
	<path fill="#FFFFFF" d="M8.926,73.607V26.733h7.738v19.552h39.136v27.322H8.926z M47.966,54.119H16.664v11.75h31.302V54.119z"/>
	<path fill="#FFFFFF" d="M57.837,73.607V46.285h46.874v27.322H57.837z M96.877,54.119H65.575v11.75h31.302V54.119z"/>
	<path fill="#FFFFFF" d="M145.788,73.607V54.119h-31.302v19.488h-7.738V26.733h7.738v19.552h39.136v27.322H145.788z"/>
	<path fill="#FFFFFF" d="M155.659,73.607V46.285h39.04V26.733h7.833v46.874H155.659z M194.699,54.119h-31.302v11.75h31.302V54.119z"
		/>
	<path fill="#FFFFFF" d="M204.571,73.607V56.061h39.04v-1.942h-39.04v-7.833h46.874v27.322H204.571z M243.611,63.895h-31.302v1.975
		h31.302V63.895z"/>
	<path fill="#FFFFFF" d="M292.522,73.607V54.119H261.22v19.488h-7.738V46.285h46.874v27.322H292.522z"/>
	<path fill="#0000FF" d="M354.552,73.607v-7.738h39.04v-1.975h-39.04V46.285h46.874v7.833H362.29v1.942h39.136v17.546H354.552z"/>
	<path fill="#0000FF" d="M403.463,73.607V46.285h46.874v27.322H403.463z M442.503,54.119h-31.302v11.75h31.302V54.119z"/>
	<path fill="#0000FF" d="M452.375,73.607V26.733h7.738v46.874H452.375z"/>
	<path fill="#0000FF" d="M462.15,73.607V46.285h46.873v27.322H462.15z M501.19,54.119h-31.302v11.75h31.302V54.119z"/>
	<path fill="#0000FF" d="M534.467,73.766L511.062,56.73V46.285h7.737v7.324l15.668,11.527l15.635-11.527v-7.324h7.834V56.73
		L534.467,73.766z"/>
	<path fill="#0000FF" d="M559.973,73.607V46.285h46.873v17.609h-39.135v1.975h39.135v7.738H559.973z M599.013,54.119h-31.302v1.942
		h31.302V54.119z"/>
	<path fill="#0000FF" d="M608.884,86.663v-7.833h39.04v-5.222h-39.04V46.285h7.738v19.584h31.302V46.285h7.833v40.377H608.884z"/>
</g>
</svg>
